<?xml version="1.0" encoding="UTF-8"?> <!-- Generator: Adobe Illustrator 17.1.0, SVG Export Plug-In . SVG Version: 6.00 Build 0) --> <svg xmlns="http://www.w3.org/2000/svg" xmlns:xlink="http://www.w3.org/1999/xlink" id="_x31_" x="0px" y="0px" viewBox="0 0 404.9 305.1" xml:space="preserve"> <g> <g> <path fill-rule="evenodd" clip-rule="evenodd" fill="#00D5FF" d="M118.4,247.3H97.7c-2.7,0-5.2-0.7-7.4-2c-2.2-1.3-4-3.1-5.4-5.4 c-1.3-2.2-2-4.7-2-7.4v-20.6l35.5,0v8.2l-27.3,0v3h13.3v8.2H91.2v1.2c0,1.8,0.6,3.4,1.9,4.7c1.3,1.3,2.8,1.9,4.6,1.9h20.7V247.3 L118.4,247.3z M169.4,247.3h-4.1c-2.7,0-5.2-1-7.5-3c-1.5-1.4-3.3-3.5-5.4-6.6l-0.8-1.1l-7.5,10.6h-10.1l12.5-17.7l-1-1.4 c-1.9-2.8-3.4-4.8-4.5-6.1c-1.1-1.3-2.2-2-3.1-2H134v-8.2h4.1c2.7,0,5.2,1,7.5,3c1.5,1.3,3.3,3.5,5.4,6.5l0.7,1.1l7.5-10.6h10.1 l-12.5,17.7l1,1.5c1.9,2.7,3.3,4.8,4.4,6c1.1,1.3,2.1,2,3.1,2h4.1V247.3L169.4,247.3z M204.8,247.3h-8.2v-27.2h-13.4v-8.2h34.9 v8.2h-13.4V247.3L204.8,247.3z M269.6,247.3h-8.2v-6.9h-21.1v6.9H232v-23.1c0-2.3,0.6-4.3,1.7-6.2c1.1-1.9,2.6-3.4,4.5-4.5 c1.9-1.1,3.9-1.7,6.2-1.7h25.2V247.3L269.6,247.3z M261.4,232.2v-12h-17c-1.1,0-2.1,0.4-2.9,1.2c-0.8,0.8-1.2,1.8-1.2,2.9v7.9 H261.4L261.4,232.2z M321.9,247.3h-30.1c-1.1,0-2.1-0.3-3-0.8c-0.9-0.5-1.6-1.3-2-2.4c-0.2-0.6-0.3-1.2-0.3-1.7c0-1.5,0.7-2.8,2-4 l20.9-18.2h-22.9v-8.2h35.4v8.2l-21.8,19h21.8V247.3z"></path> <path fill-rule="evenodd" clip-rule="evenodd" fill="#00D5FF" d="M155.1,262.2c-0.2-1-0.8-1.8-1.8-2.5c-0.9-0.6-2-1-3.3-1 c-1.4,0-2.5,0.4-3.4,1.2c-0.9,0.8-1.3,1.8-1.3,3.1c0,1.3,0.5,2.3,1.3,3c0.9,0.7,1.6,1,2.6,1.4l0.7,0.2c0.3,0.1,0.6,0.2,0.7,0.3 l0.5,0.2c0.4,0.2,0.5,0.3,0.5,0.5c0,0.3-0.5,0.5-1.1,0.5c-0.8,0-1.5-0.4-1.7-1l-4.1,0.7c0.3,1.1,0.9,2.1,2,2.8 c1.1,0.7,2.3,1,3.7,1c1.5,0,2.8-0.4,3.7-1.2c0.9-0.8,1.4-1.9,1.4-3.2c0-1.3-0.5-2.3-1.3-3c-0.8-0.7-1.6-1-2.6-1.3 c-0.4-0.1-1.2-0.3-1.5-0.4l-0.5-0.2c-0.4-0.2-0.5-0.3-0.5-0.5c0-0.3,0.3-0.5,0.8-0.5c0.5,0,0.9,0.2,1,0.6L155.1,262.2L155.1,262.2 z M180.1,266.8c0,1.2-0.9,2.1-2.2,2.1s-2.2-0.9-2.2-2.1v-7.9h-4v7.9c0,1.6,0.6,3,1.8,4.1c1.2,1.1,2.6,1.7,4.4,1.7 c1.8,0,3.2-0.6,4.4-1.7c1.2-1.1,1.8-2.5,1.8-4.1v-7.9h-4V266.8L180.1,266.8z M210.4,262.2c-0.2-1-0.8-1.8-1.8-2.5 c-0.9-0.6-2-1-3.3-1c-1.4,0-2.5,0.4-3.4,1.2c-0.9,0.8-1.3,1.8-1.3,3.1c0,1.3,0.5,2.3,1.3,3c0.9,0.7,1.6,1,2.6,1.4l0.7,0.2 c0.3,0.1,0.6,0.2,0.7,0.3l0.5,0.2c0.4,0.2,0.5,0.3,0.5,0.5c0,0.3-0.5,0.5-1.1,0.5c-0.8,0-1.5-0.4-1.7-1l-4.1,0.7 c0.3,1.1,0.9,2.1,2,2.8c1.1,0.7,2.3,1,3.7,1c1.5,0,2.8-0.4,3.7-1.2c0.9-0.8,1.4-1.9,1.4-3.2c0-1.3-0.5-2.3-1.3-3 c-0.8-0.7-1.6-1-2.6-1.3c-0.4-0.1-1.2-0.3-1.5-0.4l-0.5-0.2c-0.4-0.2-0.5-0.3-0.5-0.5c0-0.3,0.3-0.5,0.8-0.5c0.5,0,0.9,0.2,1,0.6 L210.4,262.2L210.4,262.2z M231.3,272.4v-5h4.3v5h4v-13.5h-4v4.9h-4.3v-4.9h-4v13.5H231.3L231.3,272.4z M260,272.4v-13.5h-4v13.5 H260z"></path> </g> <path fill-rule="evenodd" clip-rule="evenodd" fill="#00D5FF" d="M242.5,152.9l3.9-1.7l3-5.6l-5.1-6.6l-3.9,0.5l-1.2,7.6l0,0.1 l-0.8,4.2L242.5,152.9L242.5,152.9z M200.7,67.9l-0.1-15.3l-13.3-9.9l-17.1,8.6l-0.5,0.4l-7.9,11L161,72.9l2.4,15.5l7.7,7.4 l13.2,3.3l0.3,0.1l9,3.6l7.4,0.4h0l1.2,0.1l0.1,0v0l8.8-0.5l9-3.6l0.3-0.1l13.2-3.3l7.7-7.4l2.4-15.5l-0.8-10.3l-7.9-11l-0.5-0.4 l-17.1-8.6l-15,0.3h-0.1l-7.8-0.2l9.4,7l0.8,1.7l0.1,16.4l1.6,0l1.4,0.5l1.3,1.2l4.7-6.5l1-0.7l4.7-1.7l1.1-0.1l7,1.2l0.8,0.3 l7.9,5l-2.3,3.6l-7.5-4.8l-6.1-1l-3.6,1.3l-4.6,6.3l7.5,6.8l6.3,2.1l1.3,2.8l-1.9,4.9l-1,1.1l-9.6,5.2l-0.5,0.2l-12,3.3l0,0.1 l-0.2-0.1l-0.2,0.1l0-0.1l-12-3.3l-0.5-0.2l-9.6-5.2l-1-1.1l-1.9-4.9l1.3-2.8l6.3-2.1l7.8-7l-4.4-6l-3.6-1.3l-6.1,1l-7.5,4.8 l-2.3-3.6l7.9-5l0.8-0.3l7-1.2l1.1,0.1l4.7,1.7l1,0.7l4.5,6.2l1.1-0.9l1.4-0.5l1.9-0.1L200.7,67.9L200.7,67.9z M216.4,87l-7.3,1.7 l-1.9-0.4l-4.3-3.6h-1.2l-4.3,3.6l-1.9,0.4l-7.3-1.7l1-4.1l6.2,1.5l4.1-3.4l1.4-0.5h0.5h1.6h0.5l1.4,0.5l4.1,3.4l6.2-1.5L216.4,87 L216.4,87z M202.4,94.5l-10.9-3l-8.7-4.7l-0.8-2.1l4.6-1.5l0.8-0.4l11.8-10.6l3.2-0.1l3.2,0.1l11.8,10.6l0.8,0.4l4.6,1.5l-0.8,2.1 l-8.7,4.7L202.4,94.5L202.4,94.5z M138.3,78l2.2-12.9l-21.4-10.9l-2.6,1.9l-7.4,8.8l12.1-1.8l2.4,1.5l2.6,9l4.2,1.9L138.3,78 L138.3,78z M144.8,65.2L162,55.2l-3.9,5.5l-0.4,1.1l-0.9,11.1l0,0.5l2.1,13.5l-9-1.7l-7.6-5.3L144.8,65.2L144.8,65.2z M262.6,79.8 l-7.6,5.3l-9,1.7l2.1-13.5l0-0.5l-0.9-11.1l-0.4-1.1l-3.9-5.5l17.2,10.1L262.6,79.8L262.6,79.8z M264.4,65.1l2.2,12.9l8-2.5 l4.2-1.9l2.6-9l2.4-1.5l12.1,1.8l-7.4-8.8l-2.6-1.9L264.4,65.1L264.4,65.1z M245.4,51.7l16.7,9.8l19.8-10.1l-3.2-2.3l-13-3.3 L249,49.6L245.4,51.7L245.4,51.7z M219,38.6l11.5,5.8l0,0l17.8-9.8l0.8-0.2l19.7-2l0.9,0.1c0,0,14.1,4.6,15.8,5.6 c1.6,0.9,14.1,10.3,14.1,10.4l0.8,1.2l4.6,19.7l0,0l-0.1,0l-2,0.1l-2.9,0.2l0,0l-15-2.2l-2.3,8.2l-1.2,1.4l-5.2,2.4l-0.2,0.1 l-10.1,3.2l-8.8,6.1l-0.8,0.3l-11.8,2.3l-4.1,3.9l7.6,3.1l1,0.8l10.9,17.6l0.3,1l0.8,12l-0.1,0.7c0,0-3.2,11.5-3.6,12.3 c-0.4,0.9-2.8,3.1-3.7,3.8l-3.8,7l-0.3,0.6l-0.7,0.3l-5.3,2.4l-0.8,0.3l-0.8-0.3l-4.7-1.7l4.4,12.9l0.1,0.3l0,0.4l-0.1,14.8l0,1.5 l-1.5,0.5c0,0-7.7,2.5-9.3,2.5c-1.3,0-19.1,0.9-19.2,0.9l-0.3,0l-0.3-0.1l-7.3-2l-7.3,2l-0.3,0.1l-0.3,0c-0.1,0-17.8-0.9-19.2-0.9 c-1.6,0-9.3-2.5-9.3-2.5l-1.5-0.5l0-1.5l-0.1-14.8l0-0.4l0.1-0.3l4.4-12.9l-4.7,1.7l-0.8,0.3l-0.8-0.3l-5.3-2.4l-0.7-0.3l-0.3-0.6 l-3.8-7c-0.9-0.8-3.3-2.9-3.7-3.8c-0.3-0.8-3.6-12.3-3.6-12.3l-0.1-0.7l0.8-12l0.3-1l10.9-17.6l1-0.8l5.9-2.4l-4.8-4.6l-11.8-2.3 l-0.8-0.3l-8.8-6.1L129,79.5l-0.2-0.1l-5.2-2.4l-1.2-1.4l-2.3-8.2l-15,2.2l0,0l-2.9-0.2l-2-0.1l-0.1,0l0,0l4.6-19.7l0.8-1.2 c0,0,12.5-9.5,14.1-10.4c1.7-1,15.8-5.6,15.8-5.6l0.9-0.1l19.7,2l0.8,0.2l17.8,9.8l0,0l11.5-5.8l1-0.2l15.5,0.3l15.5-0.3L219,38.6 L219,38.6z M236.9,47.6l-1.5-1.1l14.5-8l18.9-1.9c2.3,0.8,13.4,4.4,14.6,5.1c1.3,0.7,10.6,7.7,13,9.6l2.4,10.5l-7.4-8.7l-0.4-0.3 l-10.2-7.4l-0.7-0.3l-13.9-3.5l-1,0l-17.6,3.9l-0.6,0.2l-7,4.3l-1.9-1.4l0-0.1l-0.8-0.7L236.9,47.6L236.9,47.6z M237,98.5l8.7,3.6 l6.1,9.9l-19.2-6.4l-1.6-4.7l4.3-1.1l1-0.5L237,98.5L237,98.5z M221.6,103.3l-9.1,3.6l-0.7,0.1l-9.2,0.5h-0.1l-0.3,0h-0.2l-1.3-0.1 v0l-7.8-0.4l-0.7-0.1l-4.6-1.8l11,9.7l1.1,1l-0.6,1.4l-6.9,17l11.1,18.5l11.1-18.5l-6.9-17l-0.6-1.4l1.1-1L221.6,103.3L221.6,103.3 z M176.1,101.4l-1.4,4.2l-19.2,6.4l6.1-9.9l7-2.9l0,0l1,0.5L176.1,101.4L176.1,101.4z M166.7,48.6l-1.9,1.4l-7-4.3l-0.6-0.2 l-17.6-3.9l-1,0l-13.9,3.5l-0.7,0.3l-10.2,7.4l-0.4,0.3l-7.4,8.7l2.4-10.5c2.5-1.9,11.8-8.9,13-9.6c1.2-0.7,12.3-4.4,14.6-5.1 l18.9,1.9l14.5,8l-1.5,1.1l-0.5,0.3L166.7,48.6L166.7,48.6L166.7,48.6z M123,51.4l3.2-2.3l13-3.3l16.7,3.7l3.6,2.2l-16.7,9.8 L123,51.4L123,51.4z M215.4,179.2l1.1,2.1l0.3,0.5l0,0.6l0,2.3l3.8-0.2l0-2.1l-0.9-1.6l3.8-2l1.1,2.1l0.3,0.5l0,0.6l0,2.4 c1.5-0.1,2.8-0.1,3.9-0.2l0.1-4.6l-0.9-1.6l3.8-2l1.1,2.1l0.3,0.5l0,0.6l-0.1,4.5c1.4-0.4,3.2-0.9,4.4-1.3l0.1-12.8l-6.2-18.3 l-25.4,8.6l0.2,23.6l5.8,1.6l0.7,0l0-2l-0.9-1.6L215.4,179.2L215.4,179.2z M207.4,154.6l27.8-9.4l1.1-7.1l-0.4-6.1l-17.3,4.2 L207.4,154.6L207.4,154.6z M195.7,181.2l-0.9,1.6l0,2l0.7,0l5.8-1.6l0.2-23.6l-25.4-8.6l-6.2,18.3l0.1,12.8c1.2,0.4,3,0.9,4.4,1.3 l-0.1-4.5l0-0.6l0.3-0.5l1.1-2.1l3.8,2l-0.9,1.6l0.1,4.6c1,0,2.4,0.1,3.9,0.2l0-2.4l0-0.6l0.3-0.5l1.1-2.1l3.8,2l-0.9,1.6l0,2.1 l3.8,0.2l0-2.3l0-0.6l0.3-0.5l1.1-2.1L195.7,181.2L195.7,181.2z M252.2,142.3l-5.3-6.9l-0.8-1l-1.2,0.2l-1.2,0.2l12.3-14.7l0.6,9.7 c-0.5,1.9-3.2,11.2-3.3,11.6C253.2,141.4,252.7,141.8,252.2,142.3L252.2,142.3z M218.4,131.8l17-4.1l-4.9-15.3l0,0l-0.8-2.5 l-0.8-2.4l-1.3-3.9l-15,13.2L218.4,131.8L218.4,131.8z M253.1,116.9l-18.7-6.3l0.1,0.4l0,0l5.3,16.2l0.1,0.5l0.3,4.5L253.1,116.9 L253.1,116.9z M172.1,145.2l27.8,9.4l-11.1-18.4l-17.3-4.2l-0.4,6.1L172.1,145.2L172.1,145.2z M163.6,134.7l-12.3-14.7l-0.6,9.7 c0.5,1.9,3.2,11.2,3.3,11.6c0,0,0.5,0.5,1.1,1l5.3-6.9l0.8-1l1.2,0.2L163.6,134.7L163.6,134.7z M161,151.1l3.9,1.7l4.1-1.5 l-0.8-4.2l0-0.1l-1.2-7.6l-3.9-0.5l-5.1,6.6L161,151.1L161,151.1z M179.8,103.7l-1.3,3.9l-0.8,2.4l-0.8,2.5l0,0l-4.9,15.3l17,4.1 l6-14.9L179.8,103.7L179.8,103.7z M154.3,116.9l12.9,15.4l0.3-4.5l0.1-0.5l5.3-16.2l0,0l0.1-0.4L154.3,116.9z"></path> </g> </svg> 