<?xml version="1.0" encoding="UTF-8"?> <!-- Generator: Adobe Illustrator 17.1.0, SVG Export Plug-In . SVG Version: 6.00 Build 0) --> <svg xmlns="http://www.w3.org/2000/svg" xmlns:xlink="http://www.w3.org/1999/xlink" id="_x31_" x="0px" y="0px" viewBox="0 0 489.6 259.2" xml:space="preserve"> <g> <path fill-rule="evenodd" clip-rule="evenodd" fill="#00D5FF" d="M177.4,171.7l3.9-1.7l3-5.6l-5.1-6.6l-3.9,0.5l-1.2,7.6l0,0.1 l-0.8,4.2L177.4,171.7L177.4,171.7z M135.6,86.7l-0.1-15.3l-13.3-9.9l-17.1,8.6l-0.5,0.4l-7.9,11l-0.8,10.3l2.4,15.5l7.7,7.4 l13.2,3.3l0.3,0.1l9,3.6l7.4,0.4h0l1.2,0.1l0.1,0v0l8.8-0.5l9-3.6l0.3-0.1l13.2-3.3l7.7-7.4l2.4-15.5L178,81.5l-7.9-11l-0.5-0.4 l-17.1-8.6l-15,0.3h-0.1l-7.8-0.2l9.4,7l0.8,1.7l0.1,16.4l1.6,0l1.4,0.5l1.3,1.2l4.7-6.5l1-0.7l4.7-1.7l1.1-0.1l7,1.2l0.8,0.3 l7.9,5l-2.3,3.6l-7.5-4.8l-6.1-1l-3.6,1.3l-4.6,6.3l7.5,6.8l6.3,2.1l1.3,2.8l-1.9,4.9l-1,1.1l-9.6,5.2l-0.5,0.2l-12,3.3l0,0.1 l-0.2-0.1l-0.2,0.1l0-0.1l-12-3.3l-0.5-0.2l-9.6-5.2l-1-1.1l-1.9-4.9l1.3-2.8l6.3-2.1l7.8-7l-4.4-6l-3.6-1.3l-6.1,1l-7.5,4.8 l-2.3-3.6l7.9-5l0.8-0.3l7-1.2l1.1,0.1l4.7,1.7l1,0.7l4.5,6.2l1.1-0.9l1.4-0.5l1.9-0.1L135.6,86.7L135.6,86.7z M151.3,105.8 l-7.3,1.7l-1.9-0.4l-4.3-3.6h-1.2l-4.3,3.6l-1.9,0.4l-7.3-1.7l1-4.1l6.2,1.5l4.1-3.4l1.4-0.5h0.5h1.6h0.5l1.4,0.5l4.1,3.4l6.2-1.5 L151.3,105.8L151.3,105.8z M137.3,113.4l-10.9-3l-8.7-4.7l-0.8-2.1l4.6-1.5l0.8-0.4L134.1,91l3.2-0.1l3.2,0.1l11.8,10.6l0.8,0.4 l4.6,1.5l-0.8,2.1l-8.7,4.7L137.3,113.4L137.3,113.4z M73.2,96.8l2.2-12.9L54,73l-2.6,1.9L44,83.6l12.1-1.8l2.4,1.5l2.6,9l4.2,1.9 L73.2,96.8L73.2,96.8z M79.7,84.1L96.9,74l-3.9,5.5l-0.4,1.1l-0.9,11.1l0,0.5l2.1,13.5l-9-1.7l-7.6-5.3L79.7,84.1L79.7,84.1z M197.5,98.6l-7.6,5.3l-9,1.7l2.1-13.5l0-0.5l-0.9-11.1l-0.4-1.1l-3.9-5.5L195,84.1L197.5,98.6L197.5,98.6z M199.3,83.9l2.2,12.9 l8-2.5l4.2-1.9l2.6-9l2.4-1.5l12.1,1.8l-7.4-8.8l-2.6-1.9L199.3,83.9L199.3,83.9z M180.3,70.5l16.7,9.8l19.8-10.1l-3.2-2.3l-13-3.3 l-16.7,3.7L180.3,70.5L180.3,70.5z M153.9,57.4l11.5,5.8l0,0l17.8-9.8l0.8-0.2l19.7-2l0.9,0.1c0,0,14.1,4.6,15.8,5.6 c1.6,0.9,14.1,10.3,14.1,10.4l0.8,1.2l4.6,19.7l0,0l-0.1,0l-2,0.1l-2.9,0.2l0,0l-15-2.2l-2.3,8.2l-1.2,1.4l-5.2,2.4l-0.2,0.1 l-10.1,3.2l-8.8,6.1l-0.8,0.3l-11.8,2.3l-4.1,3.9l7.6,3.1l1,0.8l10.9,17.6l0.3,1l0.8,12l-0.1,0.7c0,0-3.2,11.5-3.6,12.3 c-0.4,0.9-2.8,3.1-3.7,3.8l-3.8,7l-0.3,0.6l-0.7,0.3l-5.3,2.4l-0.8,0.3l-0.8-0.3l-4.7-1.7l4.4,12.9l0.1,0.3l0,0.4l-0.1,14.8l0,1.5 l-1.5,0.5c0,0-7.7,2.5-9.3,2.5c-1.3,0-19.1,0.9-19.2,0.9l-0.3,0l-0.3-0.1l-7.3-2l-7.3,2l-0.3,0.1l-0.3,0c-0.1,0-17.8-0.9-19.2-0.9 c-1.6,0-9.3-2.5-9.3-2.5l-1.5-0.5l0-1.5l-0.1-14.8l0-0.4l0.1-0.3l4.4-12.9l-4.7,1.7l-0.8,0.3l-0.8-0.3l-5.3-2.4l-0.7-0.3l-0.3-0.6 l-3.8-7c-0.9-0.8-3.3-2.9-3.7-3.8c-0.3-0.8-3.6-12.3-3.6-12.3l-0.1-0.7l0.8-12l0.3-1l10.9-17.6l1-0.8l5.9-2.4l-4.8-4.6L83.6,108 l-0.8-0.3l-8.8-6.1l-10.1-3.2l-0.2-0.1l-5.2-2.4l-1.2-1.4l-2.3-8.2l-15,2.2l0,0L37,88.4l-2-0.1l-0.1,0l0,0l4.6-19.7l0.8-1.2 c0,0,12.5-9.5,14.1-10.4c1.7-1,15.8-5.6,15.8-5.6l0.9-0.1l19.7,2l0.8,0.2l17.8,9.8l0,0l11.5-5.8l1-0.2l15.5,0.3l15.5-0.3 L153.9,57.4L153.9,57.4z M171.8,66.5l-1.5-1.1l14.5-8l18.9-1.9c2.3,0.8,13.4,4.4,14.6,5.1c1.3,0.7,10.6,7.7,13,9.6l2.4,10.5 l-7.4-8.7l-0.4-0.3l-10.2-7.4l-0.7-0.3l-13.9-3.5l-1,0l-17.6,3.9l-0.6,0.2l-7,4.3l-1.9-1.4l0-0.1l-0.8-0.7L171.8,66.5L171.8,66.5z M171.9,117.3l8.7,3.6l6.1,9.9l-19.2-6.4l-1.6-4.7l4.3-1.1l1-0.5L171.9,117.3L171.9,117.3z M156.5,122.1l-9.1,3.6l-0.7,0.1 l-9.2,0.5h-0.1l-0.3,0H137l-1.3-0.1v0l-7.8-0.4l-0.7-0.1l-4.6-1.8l11,9.7l1.1,1l-0.6,1.4l-6.9,17l11.1,18.5l11.1-18.5l-6.9-17 l-0.6-1.4l1.1-1L156.5,122.1L156.5,122.1z M111,120.2l-1.4,4.2l-19.2,6.4l6.1-9.9l7-2.9l0,0l1,0.5L111,120.2L111,120.2z M101.6,67.4l-1.9,1.4l-7-4.3l-0.6-0.2l-17.6-3.9l-1,0l-13.9,3.5l-0.7,0.3l-10.2,7.4L48.3,72L41,80.7l2.4-10.5 c2.5-1.9,11.8-8.9,13-9.6c1.2-0.7,12.3-4.4,14.6-5.1l18.9,1.9l14.5,8l-1.5,1.1l-0.5,0.3L101.6,67.4L101.6,67.4L101.6,67.4z M57.9,70.2l3.2-2.3l13-3.3l16.7,3.7l3.6,2.2l-16.7,9.8L57.9,70.2L57.9,70.2z M150.3,198l1.1,2.1l0.3,0.5l0,0.6l0,2.3l3.8-0.2 l0-2.1l-0.9-1.6l3.8-2l1.1,2.1l0.3,0.5l0,0.6l0,2.4c1.5-0.1,2.8-0.1,3.9-0.2l0.1-4.6l-0.9-1.6l3.8-2l1.1,2.1l0.3,0.5l0,0.6 l-0.1,4.5c1.4-0.4,3.2-0.9,4.4-1.3l0.1-12.8l-6.2-18.3l-25.4,8.6l0.2,23.6l5.8,1.6l0.7,0l0-2l-0.9-1.6L150.3,198L150.3,198z M142.3,173.4l27.8-9.4l1.1-7.1l-0.4-6.1l-17.3,4.2L142.3,173.4L142.3,173.4z M130.6,200l-0.9,1.6l0,2l0.7,0l5.8-1.6l0.2-23.6 l-25.4-8.6l-6.2,18.3l0.1,12.8c1.2,0.4,3,0.9,4.4,1.3l-0.1-4.5l0-0.6l0.3-0.5l1.1-2.1l3.8,2l-0.9,1.6l0.1,4.6c1,0,2.4,0.1,3.9,0.2 l0-2.4l0-0.6l0.3-0.5l1.1-2.1l3.8,2l-0.9,1.6l0,2.1l3.8,0.2l0-2.3l0-0.6l0.3-0.5l1.1-2.1L130.6,200L130.6,200z M187.1,161.1 l-5.3-6.9l-0.8-1l-1.2,0.2l-1.2,0.2l12.3-14.7l0.6,9.7c-0.5,1.9-3.2,11.2-3.3,11.6C188.1,160.2,187.7,160.7,187.1,161.1 L187.1,161.1z M153.4,150.7l17-4.1l-4.9-15.3l0,0l-0.8-2.5l-0.8-2.4l-1.3-3.9l-15,13.2L153.4,150.7L153.4,150.7z M188,135.8 l-18.7-6.3l0.1,0.4l0,0l5.3,16.2l0.1,0.5l0.3,4.5L188,135.8L188,135.8z M107,164l27.8,9.4L123.7,155l-17.3-4.2l-0.4,6.1L107,164 L107,164z M98.5,153.6l-12.3-14.7l-0.6,9.7c0.5,1.9,3.2,11.2,3.3,11.6c0,0,0.5,0.5,1.1,1l5.3-6.9l0.8-1l1.2,0.2L98.5,153.6 L98.5,153.6z M95.9,170l3.9,1.7l4.1-1.5L103,166l0-0.1l-1.2-7.6l-3.9-0.5l-5.1,6.6L95.9,170L95.9,170z M114.7,122.5l-1.3,3.9 l-0.8,2.4l-0.8,2.5l0,0l-4.9,15.3l17,4.1l6-14.9L114.7,122.5L114.7,122.5z M89.2,135.8l12.9,15.4l0.3-4.5l0.1-0.5l5.3-16.2l0,0 l0.1-0.4L89.2,135.8z"></path> <g> <path fill-rule="evenodd" clip-rule="evenodd" fill="#00D5FF" d="M251.2,157.4h-20.7c-2.7,0-5.2-0.7-7.4-2c-2.2-1.3-4-3.1-5.4-5.4 c-1.3-2.2-2-4.7-2-7.4V122l35.5,0v8.2l-27.3,0v3h13.3v8.2H224v1.2c0,1.8,0.6,3.4,1.9,4.7c1.3,1.3,2.8,1.9,4.6,1.9h20.7V157.4 L251.2,157.4z M302.2,157.4h-4.1c-2.7,0-5.2-1-7.5-3c-1.5-1.4-3.3-3.5-5.4-6.6l-0.8-1.1l-7.5,10.6h-10.1l12.5-17.7l-1-1.4 c-1.9-2.8-3.4-4.8-4.5-6.1c-1.1-1.3-2.2-2-3.1-2h-4.1V122h4.1c2.7,0,5.2,1,7.5,3c1.5,1.3,3.3,3.5,5.4,6.5l0.7,1.1L292,122H302 l-12.5,17.7l1,1.5c1.9,2.7,3.3,4.8,4.4,6c1.1,1.3,2.1,2,3.1,2h4.1V157.4L302.2,157.4z M337.6,157.4h-8.2v-27.2H316V122h34.9v8.2 h-13.4V157.4L337.6,157.4z M402.4,157.4h-8.2v-6.9H373v6.9h-8.2v-23.1c0-2.3,0.6-4.3,1.7-6.2c1.1-1.9,2.6-3.4,4.5-4.5 c1.9-1.1,3.9-1.7,6.2-1.7h25.2V157.4L402.4,157.4z M394.2,142.3v-12h-17c-1.1,0-2.1,0.4-2.9,1.2c-0.8,0.8-1.2,1.8-1.2,2.9v7.9 H394.2L394.2,142.3z M454.7,157.4h-30.1c-1.1,0-2.1-0.3-3-0.8c-0.9-0.5-1.6-1.3-2-2.4c-0.2-0.6-0.3-1.2-0.3-1.7c0-1.5,0.7-2.8,2-4 l20.9-18.2h-22.9V122h35.4v8.2l-21.8,19h21.8V157.4z"></path> <path fill-rule="evenodd" clip-rule="evenodd" fill="#00D5FF" d="M287.9,172.3c-0.2-1-0.8-1.8-1.8-2.5c-0.9-0.6-2-1-3.3-1 c-1.4,0-2.5,0.4-3.4,1.2c-0.9,0.8-1.3,1.8-1.3,3.1c0,1.3,0.5,2.3,1.3,3c0.9,0.7,1.6,1,2.6,1.4l0.7,0.2c0.3,0.1,0.6,0.2,0.7,0.3 l0.5,0.2c0.4,0.2,0.5,0.3,0.5,0.5c0,0.3-0.5,0.5-1.1,0.5c-0.8,0-1.5-0.4-1.7-1l-4.1,0.7c0.3,1.1,0.9,2.1,2,2.8 c1.1,0.7,2.3,1,3.7,1c1.5,0,2.8-0.4,3.7-1.2c0.9-0.8,1.4-1.9,1.4-3.2c0-1.3-0.5-2.3-1.3-3c-0.8-0.7-1.6-1-2.6-1.3 c-0.4-0.1-1.2-0.3-1.5-0.4l-0.5-0.2c-0.4-0.2-0.5-0.3-0.5-0.5c0-0.3,0.3-0.5,0.8-0.5c0.5,0,0.9,0.2,1,0.6L287.9,172.3L287.9,172.3 z M312.9,177c0,1.2-0.9,2.1-2.2,2.1c-1.2,0-2.2-0.9-2.2-2.1v-7.9h-4v7.9c0,1.6,0.6,3,1.8,4.1c1.2,1.1,2.6,1.7,4.4,1.7 c1.8,0,3.2-0.6,4.4-1.7c1.2-1.1,1.8-2.5,1.8-4.1v-7.9h-4V177L312.9,177z M343.2,172.3c-0.2-1-0.8-1.8-1.8-2.5c-0.9-0.6-2-1-3.3-1 c-1.4,0-2.5,0.4-3.4,1.2c-0.9,0.8-1.3,1.8-1.3,3.1c0,1.3,0.5,2.3,1.3,3c0.9,0.7,1.6,1,2.6,1.4l0.7,0.2c0.3,0.1,0.6,0.2,0.7,0.3 l0.5,0.2c0.4,0.2,0.5,0.3,0.5,0.5c0,0.3-0.5,0.5-1.1,0.5c-0.8,0-1.5-0.4-1.7-1L333,179c0.3,1.1,0.9,2.1,2,2.8c1.1,0.7,2.3,1,3.7,1 c1.5,0,2.8-0.4,3.7-1.2c0.9-0.8,1.4-1.9,1.4-3.2c0-1.3-0.5-2.3-1.3-3c-0.8-0.7-1.6-1-2.6-1.3c-0.4-0.1-1.2-0.3-1.5-0.4l-0.5-0.2 c-0.4-0.2-0.5-0.3-0.5-0.5c0-0.3,0.3-0.5,0.8-0.5c0.5,0,0.9,0.2,1,0.6L343.2,172.3L343.2,172.3z M364,182.6v-5h4.3v5h4v-13.5h-4 v4.9H364v-4.9h-4v13.5H364L364,182.6z M392.8,182.6v-13.5h-4v13.5H392.8z"></path> </g> </g> </svg> 