<?xml version="1.0" encoding="UTF-8"?> <svg xmlns="http://www.w3.org/2000/svg" width="100.353" height="100.352"> <g> <title>background</title> <rect fill="none" id="canvas_background" height="402" width="582" y="-1" x="-1"></rect> </g> <g> <title>Layer 1</title> <g id="svg_1"> <path fill="#00d5ff" id="svg_2" d="m49.982,17.015c-18.555,0 -33.65,15.096 -33.65,33.65s15.096,33.65 33.65,33.65c18.555,0 33.651,-15.096 33.651,-33.65s-15.096,-33.65 -33.651,-33.65zm0,63.693c-16.566,0 -30.044,-13.477 -30.044,-30.043s13.478,-30.044 30.044,-30.044c16.566,0 30.043,13.478 30.043,30.044s-13.477,30.043 -30.043,30.043z"></path> <path fill="#00d5ff" id="svg_3" d="m58.485,45.198l-7.258,7.258l0,-25.816c0,-0.996 -0.808,-1.803 -1.804,-1.803s-1.803,0.807 -1.803,1.803l0,30.169c0,0.119 0.012,0.238 0.036,0.355c0.01,0.051 0.029,0.098 0.044,0.148c0.018,0.063 0.033,0.127 0.059,0.189c0.025,0.06 0.059,0.114 0.09,0.171c0.025,0.047 0.046,0.095 0.076,0.14c0.132,0.198 0.303,0.368 0.501,0.501c0.037,0.025 0.077,0.041 0.115,0.062c0.064,0.036 0.126,0.074 0.195,0.103c0.054,0.022 0.111,0.035 0.166,0.052c0.057,0.017 0.111,0.039 0.17,0.05c0.116,0.023 0.234,0.036 0.352,0.036s0.236,-0.012 0.352,-0.036c0.059,-0.012 0.114,-0.033 0.171,-0.051c0.055,-0.017 0.111,-0.029 0.165,-0.051c0.07,-0.029 0.134,-0.068 0.199,-0.105c0.037,-0.021 0.075,-0.036 0.111,-0.06c0.101,-0.067 0.195,-0.143 0.279,-0.229l10.335,-10.335c0.704,-0.704 0.704,-1.846 0,-2.55c-0.705,-0.706 -1.846,-0.706 -2.551,-0.001z"></path> <path fill="#00d5ff" id="svg_4" d="m49.983,9.044c-22.95,0 -41.621,18.671 -41.621,41.622s18.671,41.621 41.621,41.621c22.95,0 41.622,-18.671 41.622,-41.621s-18.672,-41.622 -41.622,-41.622zm0,79.635c-20.961,0 -38.015,-17.053 -38.015,-38.014c0,-20.961 17.053,-38.015 38.015,-38.015s38.014,17.054 38.014,38.015c0,20.961 -17.053,38.014 -38.014,38.014z"></path> </g> </g> </svg> 