<?xml version="1.0" encoding="UTF-8"?> <svg xmlns="http://www.w3.org/2000/svg" width="101" height="101" viewBox="0 0 101 101" fill="none"> <path d="M57.986 69.992L72.979 45.884L74.375 43.592H74.238C76.09 39.888 77.058 35.814 77.058 31.67C77.058 16.898 65.04 4.88 50.268 4.88C35.495 4.88 23.476 16.898 23.476 31.67C23.476 35.814 24.445 39.887 26.296 43.592H26.187L41.999 70.052C30.779 71.639 23.4 76.252 23.4 81.849C23.4 88.784 35.185 94.215 50.229 94.215C65.273 94.215 77.058 88.783 77.058 81.849C77.058 76.225 69.335 71.508 57.986 69.992ZM30.129 44.294C27.739 40.49 26.476 36.125 26.476 31.67C26.476 18.552 37.149 7.88 50.268 7.88C63.386 7.88 74.058 18.552 74.058 31.67C74.058 36.126 72.795 40.491 70.405 44.294L68.992 46.592H69.007L49.865 77.367L31.475 46.592H31.573L30.129 44.294ZM50.229 91.215C36.186 91.215 26.4 86.278 26.4 81.849C26.4 77.829 33.77 74.041 43.682 72.868L49.815 83.131L56.234 72.809C66.305 73.9 74.058 77.784 74.058 81.849C74.058 86.279 64.271 91.215 50.229 91.215Z" fill="#00D5FF"></path> <path d="M50.716 41.411C56.087 41.411 60.457 37.041 60.457 31.67C60.457 26.299 56.087 21.929 50.716 21.929C45.345 21.929 40.975 26.299 40.975 31.67C40.975 37.041 45.345 41.411 50.716 41.411ZM50.716 24.929C54.433 24.929 57.457 27.953 57.457 31.67C57.457 35.387 54.433 38.411 50.716 38.411C46.999 38.411 43.975 35.387 43.975 31.67C43.975 27.953 46.999 24.929 50.716 24.929Z" fill="#00D5FF"></path> </svg> 